<svg id="Layer_1" data-name="Layer 1" xmlns="http://www.w3.org/2000/svg" viewBox="0 0 85.04 85.04"><defs><style>.cls-1,.cls-10,.cls-2{fill:#fff;}.cls-1,.cls-2,.cls-3,.cls-4,.cls-5,.cls-6,.cls-9{stroke:#231f20;stroke-miterlimit:10;}.cls-1,.cls-4{stroke-width:2px;}.cls-3,.cls-4,.cls-6,.cls-9{fill:none;}.cls-5,.cls-8{fill:#231f20;}.cls-6{stroke-width:0.75px;}.cls-7{fill:#58595b;}.cls-9{stroke-width:0.5px;}</style></defs><rect class="cls-1" x="1" y="1" width="83.04" height="83.04"/><path class="cls-2" d="M41.57-18.57" transform="translate(0.02 -0.01)"/><path class="cls-3" d="M27.83,81.23,29.52,78A1.64,1.64,0,0,0,28,75.64H24.61A1.65,1.65,0,0,0,23.08,78l1.69,3.21A1.74,1.74,0,0,0,27.83,81.23Z" transform="translate(0.02 -0.01)"/><path class="cls-3" d="M59.83,81.26l1.7-3.17a1.67,1.67,0,0,0-1.47-2.45H56.67a1.66,1.66,0,0,0-1.47,2.45l1.69,3.17A1.67,1.67,0,0,0,59.83,81.26Z" transform="translate(0.02 -0.01)"/><path class="cls-4" d="M36.09,9.12,13.73,66.6a6.63,6.63,0,0,0,6.18,9H64.64a6.64,6.64,0,0,0,6.19-9L48.46,9.12A6.64,6.64,0,0,0,36.09,9.12Z" transform="translate(0.02 -0.01)"/><rect class="cls-3" x="38.54" y="5.76" width="7.53" height="45.06"/><polygon class="cls-5" points="21.63 4.73 39.52 50.71 41.27 50.32 21.63 4.73"/><line class="cls-4" x1="19.89" y1="50.81" x2="64.71" y2="50.81"/><line class="cls-6" x1="41.26" y1="21.05" x2="45.95" y2="20.93"/><line class="cls-6" x1="41.58" y1="31.44" x2="46.28" y2="31.32"/><line class="cls-6" x1="40.92" y1="10.45" x2="45.62" y2="10.33"/><line class="cls-6" x1="41.17" y1="41.84" x2="45.87" y2="41.71"/><ellipse class="cls-6" cx="42.65" cy="63.42" rx="10.99" ry="9.96"/><ellipse class="cls-7" cx="42.7" cy="63.47" rx="8.73" ry="7.91"/><path class="cls-8" d="M49.75,63.48c0,.11-11.63-1.9-11.67-1.8s10.1,6.18,10,6.26-7.92-8.8-8-8.74,4.63,11,4.53,11-1.83-11.74-1.94-11.74-1.85,11.76-2,11.74,4.62-10.93,4.53-11-8,8.82-8,8.74,10.08-6.16,10-6.26S35.6,63.59,35.6,63.48s11.64,1.91,11.67,1.81-10.1-6.19-10-6.27,7.93,8.8,8,8.74-4.63-11-4.52-11,1.82,11.73,1.94,11.73,1.84-11.76,1.94-11.73S40,67.7,40.09,67.76s8-8.82,8-8.73-10.08,6.15-10,6.25S49.75,63.37,49.75,63.48Z" transform="translate(0.02 -0.01)"/><path class="cls-9" d="M49.75,63.48c0,.11-11.63-1.9-11.67-1.8s10.1,6.18,10,6.26-7.92-8.8-8-8.74,4.63,11,4.53,11-1.83-11.74-1.94-11.74-1.85,11.76-2,11.74,4.62-10.93,4.53-11-8,8.82-8,8.74,10.08-6.16,10-6.26S35.6,63.59,35.6,63.48s11.64,1.91,11.67,1.81-10.1-6.19-10-6.27,7.93,8.8,8,8.74-4.63-11-4.52-11,1.82,11.73,1.94,11.73,1.84-11.76,1.94-11.73S40,67.7,40.09,67.76s8-8.82,8-8.73-10.08,6.15-10,6.25S49.75,63.37,49.75,63.48Z" transform="translate(0.02 -0.01)"/><path class="cls-10" d="M41.24,62.52a2.29,2.29,0,0,1,.5,0,1.35,1.35,0,0,1,.53.06.24.24,0,0,1,.16.28.67.67,0,0,1-.48.52h0a.72.72,0,0,1,.58.62.35.35,0,0,1-.18.35,1.68,1.68,0,0,1-.69.08l-.42,0Zm.13.75h.19a.54.54,0,0,0,.53-.41c0-.23-.15-.26-.41-.24a.59.59,0,0,0-.22,0A2.89,2.89,0,0,0,41.37,63.27Zm.09,1,.21,0c.26,0,.52,0,.49-.31a.58.58,0,0,0-.63-.47h-.17A3.33,3.33,0,0,0,41.46,64.24Z" transform="translate(0.02 -0.01)"/><path class="cls-10" d="M42.93,62.48h.27a3.07,3.07,0,0,1,.07,1.8,5.24,5.24,0,0,0,.82-.1v.21H42.93A5.17,5.17,0,0,0,42.93,62.48Z" transform="translate(0.02 -0.01)"/></svg>